<svg width="448" height="218" viewBox="0 0 448 218" fill="none" xmlns="http://www.w3.org/2000/svg">
<g filter="url(#filter0_f_20_271)">
<rect x="112" y="68" width="216" height="30" fill="#DAFFFB"/>
</g>
<path d="M139.696 97.24C138.704 97.24 137.616 97.192 136.432 97.096C135.248 97.032 134.048 96.92 132.832 96.76C132.8 96.024 132.768 94.872 132.736 93.304C132.704 91.704 132.672 89.848 132.64 87.736C132.608 85.592 132.576 83.32 132.544 80.92C132.512 78.52 132.48 76.104 132.448 73.672C132.448 71.24 132.432 68.92 132.4 66.712C132.4 64.504 132.4 62.568 132.4 60.904C134.128 60.712 135.776 60.568 137.344 60.472C138.944 60.344 140.416 60.28 141.76 60.28C146.56 60.28 150.288 61 152.944 62.44C155.6 63.88 156.928 65.928 156.928 68.584C156.928 71.976 154.624 74.616 150.016 76.504C152.736 77.24 154.912 78.472 156.544 80.2C158.176 81.928 158.992 83.88 158.992 86.056C158.992 88.2 158.16 90.12 156.496 91.816C154.864 93.512 152.592 94.84 149.68 95.8C146.8 96.76 143.472 97.24 139.696 97.24ZM139.936 63.784C139.936 68.424 139.968 72.696 140.032 76.6C141.824 76.312 143.392 75.848 144.736 75.208C146.112 74.536 147.184 73.736 147.952 72.808C148.752 71.88 149.152 70.904 149.152 69.88C149.152 68.76 148.72 67.752 147.856 66.856C147.024 65.928 145.904 65.192 144.496 64.648C143.12 64.072 141.6 63.784 139.936 63.784ZM140.8 93.832C142.528 93.832 144.128 93.56 145.6 93.016C147.072 92.472 148.256 91.752 149.152 90.856C150.048 89.928 150.496 88.888 150.496 87.736C150.496 86.488 150 85.272 149.008 84.088C148.048 82.872 146.768 81.832 145.168 80.968C143.6 80.104 141.92 79.56 140.128 79.336C140.256 85.032 140.48 89.864 140.8 93.832ZM174.929 97.24C172.401 97.24 170.113 96.648 168.065 95.464C166.017 94.28 164.385 92.68 163.169 90.664C161.985 88.648 161.393 86.408 161.393 83.944C161.393 81.992 161.761 80.168 162.497 78.472C163.233 76.776 164.257 75.288 165.569 74.008C166.913 72.696 168.449 71.688 170.177 70.984C171.905 70.248 173.745 69.88 175.697 69.88C178.225 69.88 180.513 70.472 182.561 71.656C184.609 72.84 186.225 74.44 187.409 76.456C188.625 78.44 189.233 80.68 189.233 83.176C189.233 85.128 188.865 86.952 188.129 88.648C187.393 90.344 186.353 91.848 185.009 93.16C183.697 94.44 182.177 95.448 180.449 96.184C178.753 96.888 176.913 97.24 174.929 97.24ZM176.321 93.352C178.017 93.352 179.345 92.632 180.305 91.192C181.265 89.72 181.745 87.688 181.745 85.096C181.745 82.92 181.425 80.984 180.785 79.288C180.145 77.592 179.265 76.248 178.145 75.256C177.025 74.264 175.745 73.768 174.305 73.768C172.609 73.768 171.281 74.504 170.321 75.976C169.361 77.416 168.881 79.432 168.881 82.024C168.881 84.168 169.201 86.104 169.841 87.832C170.481 89.528 171.361 90.872 172.481 91.864C173.633 92.856 174.913 93.352 176.321 93.352ZM205.632 97.24C203.104 97.24 200.816 96.648 198.768 95.464C196.72 94.28 195.088 92.68 193.872 90.664C192.688 88.648 192.096 86.408 192.096 83.944C192.096 81.992 192.464 80.168 193.2 78.472C193.936 76.776 194.96 75.288 196.272 74.008C197.616 72.696 199.152 71.688 200.88 70.984C202.608 70.248 204.448 69.88 206.4 69.88C208.928 69.88 211.216 70.472 213.264 71.656C215.312 72.84 216.928 74.44 218.112 76.456C219.328 78.44 219.936 80.68 219.936 83.176C219.936 85.128 219.568 86.952 218.832 88.648C218.096 90.344 217.056 91.848 215.712 93.16C214.4 94.44 212.88 95.448 211.152 96.184C209.456 96.888 207.616 97.24 205.632 97.24ZM207.024 93.352C208.72 93.352 210.048 92.632 211.008 91.192C211.968 89.72 212.448 87.688 212.448 85.096C212.448 82.92 212.128 80.984 211.488 79.288C210.848 77.592 209.968 76.248 208.848 75.256C207.728 74.264 206.448 73.768 205.008 73.768C203.312 73.768 201.984 74.504 201.024 75.976C200.064 77.416 199.584 79.432 199.584 82.024C199.584 84.168 199.904 86.104 200.544 87.832C201.184 89.528 202.064 90.872 203.184 91.864C204.336 92.856 205.616 93.352 207.024 93.352ZM223.999 97.096C223.967 96.36 223.935 95.144 223.903 93.448C223.903 91.752 223.887 89.768 223.855 87.496C223.855 85.224 223.839 82.824 223.807 80.296C223.807 77.736 223.791 75.224 223.759 72.76C223.759 70.264 223.759 67.96 223.759 65.848C223.759 63.736 223.759 62.008 223.759 60.664C225.167 60.664 226.623 60.68 228.127 60.712C229.631 60.744 230.927 60.792 232.015 60.856C232.015 62.264 232.015 64.04 232.015 66.184C232.015 68.296 231.999 70.6 231.967 73.096C231.967 75.56 231.967 78.024 231.967 80.488C233.695 79.08 235.391 77.64 237.055 76.168C238.751 74.696 240.303 73.304 241.711 71.992C243.151 70.648 244.335 69.464 245.263 68.44L249.535 71.32C248.511 72.28 247.327 73.32 245.983 74.44C244.671 75.56 243.263 76.696 241.759 77.848C242.399 79 243.119 80.36 243.919 81.928C244.751 83.464 245.599 85.096 246.463 86.824C247.327 88.52 248.159 90.216 248.959 91.912C249.759 93.576 250.479 95.112 251.119 96.52L241.903 97.48C240.943 94.728 239.935 92.04 238.879 89.416C237.855 86.792 236.831 84.424 235.807 82.312C234.527 83.24 233.231 84.136 231.919 85C231.887 87.752 231.855 90.216 231.823 92.392C231.823 94.536 231.807 96.04 231.775 96.904C230.943 96.968 229.919 97.016 228.703 97.048C227.487 97.08 225.919 97.096 223.999 97.096ZM254.618 95.8L253.994 88.024C254.954 87.928 256.154 87.848 257.594 87.784C259.034 87.72 260.474 87.688 261.914 87.688C261.914 88.776 261.898 89.88 261.866 91C261.866 92.12 261.85 93.096 261.818 93.928C261.818 94.728 261.802 95.256 261.77 95.512C260.682 95.512 259.482 95.544 258.17 95.608C256.858 95.64 255.674 95.704 254.618 95.8ZM266.745 67V60.52H274.905V67H266.745ZM266.937 97.096C266.905 96.04 266.873 94.616 266.841 92.824C266.809 91 266.777 88.92 266.745 86.584C266.745 84.216 266.729 81.688 266.697 79C266.697 76.312 266.697 73.56 266.697 70.744C268.137 70.744 269.641 70.76 271.209 70.792C272.809 70.824 274.057 70.872 274.953 70.936C274.953 73.272 274.937 75.72 274.905 78.28C274.905 80.84 274.889 83.336 274.857 85.768C274.857 88.168 274.841 90.344 274.809 92.296C274.777 94.248 274.745 95.784 274.713 96.904C273.241 96.968 271.833 97.016 270.489 97.048C269.145 97.08 267.961 97.096 266.937 97.096ZM280.508 97.096C280.476 96.072 280.444 94.664 280.412 92.872C280.38 91.048 280.348 88.952 280.316 86.584C280.316 84.184 280.3 81.608 280.268 78.856C280.268 76.072 280.268 73.208 280.268 70.264C280.972 70.264 281.836 70.28 282.86 70.312C283.884 70.312 284.908 70.328 285.932 70.36C286.988 70.392 287.852 70.424 288.524 70.456C288.524 71.256 288.524 72.072 288.524 72.904C291.244 70.888 294.012 69.88 296.828 69.88C299.42 69.88 301.516 70.792 303.116 72.616C304.716 74.44 305.868 77.352 306.572 81.352C307.308 85.352 307.676 90.6 307.676 97.096C306.94 97.096 306.06 97.08 305.036 97.048C304.012 97.048 303.004 97.032 302.012 97C301.02 96.968 300.156 96.936 299.42 96.904C299.42 91.24 299.26 86.712 298.94 83.32C298.62 79.928 298.092 77.48 297.356 75.976C296.62 74.472 295.628 73.72 294.38 73.72C293.356 73.72 292.316 74.152 291.26 75.016C290.204 75.88 289.292 77.016 288.524 78.424C288.492 81.144 288.46 83.72 288.428 86.152C288.428 88.584 288.412 90.744 288.38 92.632C288.348 94.488 288.316 95.912 288.284 96.904C287.292 96.936 286.076 96.968 284.636 97C283.228 97.064 281.852 97.096 280.508 97.096Z" fill="white"/>
<defs>
<filter id="filter0_f_20_271" x="-8" y="-52" width="456" height="270" filterUnits="userSpaceOnUse" color-interpolation-filters="sRGB">
<feFlood flood-opacity="0" result="BackgroundImageFix"/>
<feBlend mode="normal" in="SourceGraphic" in2="BackgroundImageFix" result="shape"/>
<feGaussianBlur stdDeviation="60" result="effect1_foregroundBlur_20_271"/>
</filter>
</defs>
</svg>
