<svg width="24" height="16" viewBox="0 0 24 16" fill="none" xmlns="http://www.w3.org/2000/svg">
<path fill-rule="evenodd" clip-rule="evenodd" d="M23.0237 8C23.0237 7.64892 22.8315 7.40884 22.4469 6.92868C20.7871 4.85617 16.7352 0.5 12 0.5C7.26484 0.5 3.21294 4.85617 1.55313 6.92868C1.16859 7.40884 0.976318 7.64892 0.976318 8C0.976318 8.35108 1.16859 8.59116 1.55313 9.07132C3.21293 11.1438 7.26484 15.5 12 15.5C16.7352 15.5 20.7871 11.1438 22.4469 9.07132C22.8315 8.59116 23.0237 8.35108 23.0237 8ZM12 11.75C14.0711 11.75 15.75 10.0711 15.75 8C15.75 5.92893 14.0711 4.25 12 4.25C9.92896 4.25 8.25003 5.92893 8.25003 8C8.25003 10.0711 9.92896 11.75 12 11.75Z" fill="#646983"/>
</svg>
