<svg width="28" height="20" viewBox="0 0 28 20" fill="none" xmlns="http://www.w3.org/2000/svg">
<path d="M2.09717 0.198959C1.6547 -0.121354 1.01226 -0.0471351 0.663388 0.359115C0.314515 0.765365 0.395352 1.35521 0.837825 1.67552L26.0248 19.8005C26.4672 20.1208 27.1097 20.0466 27.4586 19.6404C27.8074 19.2341 27.7266 18.6443 27.2841 18.324L22.8083 15.1052C24.4931 13.5193 25.6333 11.7419 26.2077 10.4802C26.3481 10.1716 26.3481 9.82786 26.2077 9.51927C25.5738 8.12474 24.2421 6.09349 22.251 4.39818C20.2513 2.68724 17.4986 1.24974 14.061 1.24974C11.1594 1.24974 8.74278 2.27708 6.85801 3.62474L2.09717 0.198959ZM9.93831 5.83958C11.0232 4.92943 12.474 4.37474 14.061 4.37474C17.4433 4.37474 20.1875 6.89427 20.1875 9.99974C20.1875 10.9724 19.9195 11.8865 19.4472 12.6833L17.805 11.5036C18.0262 11.0427 18.1453 10.5349 18.1453 9.99974C18.1453 7.92943 16.3159 6.24974 14.061 6.24974C13.9418 6.24974 13.8227 6.25364 13.7036 6.26536C13.9291 6.62864 14.061 7.05052 14.061 7.49974C14.061 7.89818 13.9589 8.27318 13.7802 8.60521L9.93831 5.83958ZM19.4302 17.4802L16.3159 15.2302C15.6181 15.4841 14.8566 15.6247 14.061 15.6247C10.6786 15.6247 7.93442 13.1052 7.93442 9.99974C7.93442 9.73021 7.95569 9.46849 7.99398 9.21068L3.98194 6.30833C3.0119 7.46849 2.31841 8.62474 1.91423 9.51927C1.77383 9.82786 1.77383 10.1716 1.91423 10.4802C2.54815 11.8747 3.87983 13.906 5.87096 15.6013C7.8706 17.3122 10.6233 18.7497 14.061 18.7497C16.0946 18.7497 17.8858 18.2458 19.4302 17.4802Z" fill="#646983"/>
</svg>
