<svg width="545" height="200" viewBox="0 0 545 200" fill="none" xmlns="http://www.w3.org/2000/svg">
<rect width="25" height="17.8571" rx="4" fill="#828A90"/>
<rect y="19.2857" width="25" height="5.71429" rx="2.85714" fill="#828A90"/>
<rect x="30" width="25" height="17.8571" rx="4" fill="#828A90"/>
<rect x="30" y="19.2857" width="25" height="5.71429" rx="2.85714" fill="#828A90"/>
<rect x="60" width="25" height="17.8571" rx="4" fill="#828A90"/>
<rect x="60" y="19.2857" width="25" height="5.71429" rx="2.85714" fill="#828A90"/>
<rect x="125" width="25" height="17.8571" rx="4" fill="#828A90"/>
<rect x="125" y="19.2857" width="25" height="5.71429" rx="2.85714" fill="#828A90"/>
<rect x="155" width="25" height="17.8571" rx="4" fill="#828A90"/>
<rect x="155" y="19.2857" width="25" height="5.71429" rx="2.85714" fill="#828A90"/>
<rect x="185" width="25" height="17.8571" rx="4" fill="#828A90"/>
<rect x="185" y="19.2857" width="25" height="5.71429" rx="2.85714" fill="#828A90"/>
<rect x="215" width="25" height="17.8571" rx="4" fill="#828A90"/>
<rect x="215" y="19.2857" width="25" height="5.71429" rx="2.85714" fill="#828A90"/>
<rect x="245" width="25" height="17.8571" rx="4" fill="#828A90"/>
<rect x="245" y="19.2857" width="25" height="5.71429" rx="2.85714" fill="#828A90"/>
<rect x="275" width="25" height="17.8571" rx="4" fill="#828A90"/>
<rect x="275" y="19.2857" width="25" height="5.71429" rx="2.85714" fill="#828A90"/>
<rect x="305" width="25" height="17.8571" rx="4" fill="#828A90"/>
<rect x="305" y="19.2857" width="25" height="5.71429" rx="2.85714" fill="#828A90"/>
<rect x="335" width="25" height="17.8571" rx="4" fill="#828A90"/>
<rect x="335" y="19.2857" width="25" height="5.71429" rx="2.85714" fill="#828A90"/>
<rect x="365" width="25" height="17.8571" rx="4" fill="#828A90"/>
<rect x="365" y="19.2857" width="25" height="5.71429" rx="2.85714" fill="#828A90"/>
<rect x="395" width="25" height="17.8571" rx="4" fill="#828A90"/>
<rect x="395" y="19.2857" width="25" height="5.71429" rx="2.85714" fill="#828A90"/>
<rect x="460" width="25" height="17.8571" rx="4" fill="#828A90"/>
<rect x="460" y="19.2857" width="25" height="5.71429" rx="2.85714" fill="#828A90"/>
<rect x="490" width="25" height="17.8571" rx="4" fill="#828A90"/>
<rect x="490" y="19.2857" width="25" height="5.71429" rx="2.85714" fill="#828A90"/>
<rect x="520" width="25" height="17.8571" rx="4" fill="#828A90"/>
<rect x="520" y="19.2857" width="25" height="5.71429" rx="2.85714" fill="#828A90"/>
<rect y="35" width="25" height="17.8571" rx="4" fill="#828A90"/>
<rect y="54.2857" width="25" height="5.71429" rx="2.85714" fill="#828A90"/>
<rect x="30" y="35" width="25" height="17.8571" rx="4" fill="#828A90"/>
<rect x="30" y="54.2857" width="25" height="5.71429" rx="2.85714" fill="#828A90"/>
<rect x="60" y="35" width="25" height="17.8571" rx="4" fill="#828A90"/>
<rect x="60" y="54.2857" width="25" height="5.71429" rx="2.85714" fill="#828A90"/>
<rect x="125" y="35" width="25" height="17.8571" rx="4" fill="#828A90"/>
<rect x="125" y="54.2857" width="25" height="5.71429" rx="2.85714" fill="#828A90"/>
<rect x="155" y="35" width="25" height="17.8571" rx="4" fill="#828A90"/>
<rect x="155" y="54.2857" width="25" height="5.71429" rx="2.85714" fill="#828A90"/>
<rect x="185" y="35" width="25" height="17.8571" rx="4" fill="#828A90"/>
<rect x="185" y="54.2857" width="25" height="5.71429" rx="2.85714" fill="#828A90"/>
<rect x="215" y="35" width="25" height="17.8571" rx="4" fill="#828A90"/>
<rect x="215" y="54.2857" width="25" height="5.71429" rx="2.85714" fill="#828A90"/>
<rect x="245" y="35" width="25" height="17.8571" rx="4" fill="#828A90"/>
<rect x="245" y="54.2857" width="25" height="5.71429" rx="2.85714" fill="#828A90"/>
<rect x="275" y="35" width="25" height="17.8571" rx="4" fill="#828A90"/>
<rect x="275" y="54.2857" width="25" height="5.71429" rx="2.85714" fill="#828A90"/>
<rect x="305" y="35" width="25" height="17.8571" rx="4" fill="#828A90"/>
<rect x="305" y="54.2857" width="25" height="5.71429" rx="2.85714" fill="#828A90"/>
<rect x="335" y="35" width="25" height="17.8571" rx="4" fill="#828A90"/>
<rect x="335" y="54.2857" width="25" height="5.71429" rx="2.85714" fill="#828A90"/>
<rect x="365" y="35" width="25" height="17.8571" rx="4" fill="#828A90"/>
<rect x="365" y="54.2857" width="25" height="5.71429" rx="2.85714" fill="#828A90"/>
<rect x="395" y="35" width="25" height="17.8571" rx="4" fill="#828A90"/>
<rect x="395" y="54.2857" width="25" height="5.71429" rx="2.85714" fill="#828A90"/>
<rect x="460" y="35" width="25" height="17.8571" rx="4" fill="#828A90"/>
<rect x="460" y="54.2857" width="25" height="5.71429" rx="2.85714" fill="#828A90"/>
<rect x="490" y="35" width="25" height="17.8571" rx="4" fill="#828A90"/>
<rect x="490" y="54.2857" width="25" height="5.71429" rx="2.85714" fill="#828A90"/>
<rect x="520" y="35" width="25" height="17.8571" rx="4" fill="#828A90"/>
<rect x="520" y="54.2857" width="25" height="5.71429" rx="2.85714" fill="#828A90"/>
<rect y="70" width="25" height="17.8571" rx="4" fill="#828A90"/>
<rect y="89.2857" width="25" height="5.71429" rx="2.85714" fill="#828A90"/>
<rect x="30" y="70" width="25" height="17.8571" rx="4" fill="#828A90"/>
<rect x="30" y="89.2857" width="25" height="5.71429" rx="2.85714" fill="#828A90"/>
<rect x="60" y="70" width="25" height="17.8571" rx="4" fill="#828A90"/>
<rect x="60" y="89.2857" width="25" height="5.71429" rx="2.85714" fill="#828A90"/>
<rect x="125" y="70" width="25" height="17.8571" rx="4" fill="#828A90"/>
<rect x="125" y="89.2857" width="25" height="5.71429" rx="2.85714" fill="#828A90"/>
<rect x="155" y="70" width="25" height="17.8571" rx="4" fill="#828A90"/>
<rect x="155" y="89.2857" width="25" height="5.71429" rx="2.85714" fill="#828A90"/>
<rect x="185" y="70" width="25" height="17.8571" rx="4" fill="#828A90"/>
<rect x="185" y="89.2857" width="25" height="5.71429" rx="2.85714" fill="#828A90"/>
<rect x="215" y="70" width="25" height="17.8571" rx="4" fill="#828A90"/>
<rect x="215" y="89.2857" width="25" height="5.71429" rx="2.85714" fill="#828A90"/>
<rect x="245" y="70" width="25" height="17.8571" rx="4" fill="#828A90"/>
<rect x="245" y="89.2857" width="25" height="5.71429" rx="2.85714" fill="#828A90"/>
<rect x="275" y="70" width="25" height="17.8571" rx="4" fill="#828A90"/>
<rect x="275" y="89.2857" width="25" height="5.71429" rx="2.85714" fill="#828A90"/>
<rect x="305" y="70" width="25" height="17.8571" rx="4" fill="#828A90"/>
<rect x="305" y="89.2857" width="25" height="5.71429" rx="2.85714" fill="#828A90"/>
<rect x="335" y="70" width="25" height="17.8571" rx="4" fill="#828A90"/>
<rect x="335" y="89.2857" width="25" height="5.71429" rx="2.85714" fill="#828A90"/>
<rect x="365" y="70" width="25" height="17.8571" rx="4" fill="#828A90"/>
<rect x="365" y="89.2857" width="25" height="5.71429" rx="2.85714" fill="#828A90"/>
<rect x="395" y="70" width="25" height="17.8571" rx="4" fill="#828A90"/>
<rect x="395" y="89.2857" width="25" height="5.71429" rx="2.85714" fill="#828A90"/>
<rect x="460" y="70" width="25" height="17.8571" rx="4" fill="#828A90"/>
<rect x="460" y="89.2857" width="25" height="5.71429" rx="2.85714" fill="#828A90"/>
<rect x="490" y="70" width="25" height="17.8571" rx="4" fill="#828A90"/>
<rect x="490" y="89.2857" width="25" height="5.71429" rx="2.85714" fill="#828A90"/>
<rect x="520" y="70" width="25" height="17.8571" rx="4" fill="#828A90"/>
<rect x="520" y="89.2857" width="25" height="5.71429" rx="2.85714" fill="#828A90"/>
<rect y="105" width="25" height="17.8571" rx="4" fill="#828A90"/>
<rect y="124.286" width="25" height="5.71429" rx="2.85714" fill="#828A90"/>
<rect x="30" y="105" width="25" height="17.8571" rx="4" fill="#828A90"/>
<rect x="30" y="124.286" width="25" height="5.71429" rx="2.85714" fill="#828A90"/>
<rect x="60" y="105" width="25" height="17.8571" rx="4" fill="#828A90"/>
<rect x="60" y="124.286" width="25" height="5.71429" rx="2.85714" fill="#828A90"/>
<rect x="125" y="105" width="25" height="17.8571" rx="4" fill="#828A90"/>
<rect x="125" y="124.286" width="25" height="5.71429" rx="2.85714" fill="#828A90"/>
<rect x="155" y="105" width="25" height="17.8571" rx="4" fill="#828A90"/>
<rect x="155" y="124.286" width="25" height="5.71429" rx="2.85714" fill="#828A90"/>
<rect x="185" y="105" width="25" height="17.8571" rx="4" fill="#828A90"/>
<rect x="185" y="124.286" width="25" height="5.71429" rx="2.85714" fill="#828A90"/>
<rect x="215" y="105" width="25" height="17.8571" rx="4" fill="#828A90"/>
<rect x="215" y="124.286" width="25" height="5.71429" rx="2.85714" fill="#828A90"/>
<rect x="245" y="105" width="25" height="17.8571" rx="4" fill="#828A90"/>
<rect x="245" y="124.286" width="25" height="5.71429" rx="2.85714" fill="#828A90"/>
<rect x="275" y="105" width="25" height="17.8571" rx="4" fill="#828A90"/>
<rect x="275" y="124.286" width="25" height="5.71429" rx="2.85714" fill="#828A90"/>
<rect x="305" y="105" width="25" height="17.8571" rx="4" fill="#828A90"/>
<rect x="305" y="124.286" width="25" height="5.71429" rx="2.85714" fill="#828A90"/>
<rect x="335" y="105" width="25" height="17.8571" rx="4" fill="#828A90"/>
<rect x="335" y="124.286" width="25" height="5.71429" rx="2.85714" fill="#828A90"/>
<rect x="365" y="105" width="25" height="17.8571" rx="4" fill="#828A90"/>
<rect x="365" y="124.286" width="25" height="5.71429" rx="2.85714" fill="#828A90"/>
<rect x="395" y="105" width="25" height="17.8571" rx="4" fill="#828A90"/>
<rect x="395" y="124.286" width="25" height="5.71429" rx="2.85714" fill="#828A90"/>
<rect x="460" y="105" width="25" height="17.8571" rx="4" fill="#828A90"/>
<rect x="460" y="124.286" width="25" height="5.71429" rx="2.85714" fill="#828A90"/>
<rect x="490" y="105" width="25" height="17.8571" rx="4" fill="#828A90"/>
<rect x="490" y="124.286" width="25" height="5.71429" rx="2.85714" fill="#828A90"/>
<rect x="520" y="105" width="25" height="17.8571" rx="4" fill="#828A90"/>
<rect x="520" y="124.286" width="25" height="5.71429" rx="2.85714" fill="#828A90"/>
<rect y="140" width="25" height="17.8571" rx="4" fill="#828A90"/>
<rect y="159.286" width="25" height="5.71429" rx="2.85714" fill="#828A90"/>
<rect x="30" y="140" width="25" height="17.8571" rx="4" fill="#828A90"/>
<rect x="30" y="159.286" width="25" height="5.71429" rx="2.85714" fill="#828A90"/>
<rect x="60" y="140" width="25" height="17.8571" rx="4" fill="#828A90"/>
<rect x="60" y="159.286" width="25" height="5.71429" rx="2.85714" fill="#828A90"/>
<rect x="125" y="140" width="25" height="17.8571" rx="4" fill="#828A90"/>
<rect x="125" y="159.286" width="25" height="5.71429" rx="2.85714" fill="#828A90"/>
<rect x="155" y="140" width="25" height="17.8571" rx="4" fill="#828A90"/>
<rect x="155" y="159.286" width="25" height="5.71429" rx="2.85714" fill="#828A90"/>
<rect x="185" y="140" width="25" height="17.8571" rx="4" fill="#828A90"/>
<rect x="185" y="159.286" width="25" height="5.71429" rx="2.85714" fill="#828A90"/>
<rect x="215" y="140" width="25" height="17.8571" rx="4" fill="#828A90"/>
<rect x="215" y="159.286" width="25" height="5.71429" rx="2.85714" fill="#828A90"/>
<rect x="245" y="140" width="25" height="17.8571" rx="4" fill="#828A90"/>
<rect x="245" y="159.286" width="25" height="5.71429" rx="2.85714" fill="#828A90"/>
<rect x="275" y="140" width="25" height="17.8571" rx="4" fill="#828A90"/>
<rect x="275" y="159.286" width="25" height="5.71429" rx="2.85714" fill="#828A90"/>
<rect x="305" y="140" width="25" height="17.8571" rx="4" fill="#828A90"/>
<rect x="305" y="159.286" width="25" height="5.71429" rx="2.85714" fill="#828A90"/>
<rect x="335" y="140" width="25" height="17.8571" rx="4" fill="#828A90"/>
<rect x="335" y="159.286" width="25" height="5.71429" rx="2.85714" fill="#828A90"/>
<rect x="365" y="140" width="25" height="17.8571" rx="4" fill="#828A90"/>
<rect x="365" y="159.286" width="25" height="5.71429" rx="2.85714" fill="#828A90"/>
<rect x="395" y="140" width="25" height="17.8571" rx="4" fill="#828A90"/>
<rect x="395" y="159.286" width="25" height="5.71429" rx="2.85714" fill="#828A90"/>
<rect x="460" y="140" width="25" height="17.8571" rx="4" fill="#828A90"/>
<rect x="460" y="159.286" width="25" height="5.71429" rx="2.85714" fill="#828A90"/>
<rect x="490" y="140" width="25" height="17.8571" rx="4" fill="#828A90"/>
<rect x="490" y="159.286" width="25" height="5.71429" rx="2.85714" fill="#828A90"/>
<rect x="520" y="140" width="25" height="17.8571" rx="4" fill="#828A90"/>
<rect x="520" y="159.286" width="25" height="5.71429" rx="2.85714" fill="#828A90"/>
<rect y="175" width="25" height="17.8571" rx="4" fill="#828A90"/>
<rect y="194.286" width="25" height="5.71429" rx="2.85714" fill="#828A90"/>
<rect x="30" y="175" width="25" height="17.8571" rx="4" fill="#828A90"/>
<rect x="30" y="194.286" width="25" height="5.71429" rx="2.85714" fill="#828A90"/>
<rect x="60" y="175" width="25" height="17.8571" rx="4" fill="#828A90"/>
<rect x="60" y="194.286" width="25" height="5.71429" rx="2.85714" fill="#828A90"/>
<rect x="125" y="175" width="25" height="17.8571" rx="4" fill="#828A90"/>
<rect x="125" y="194.286" width="25" height="5.71429" rx="2.85714" fill="#828A90"/>
<rect x="155" y="175" width="25" height="17.8571" rx="4" fill="#828A90"/>
<rect x="155" y="194.286" width="25" height="5.71429" rx="2.85714" fill="#828A90"/>
<rect x="185" y="175" width="25" height="17.8571" rx="4" fill="#828A90"/>
<rect x="185" y="194.286" width="25" height="5.71429" rx="2.85714" fill="#828A90"/>
<rect x="215" y="175" width="25" height="17.8571" rx="4" fill="#828A90"/>
<rect x="215" y="194.286" width="25" height="5.71429" rx="2.85714" fill="#828A90"/>
<rect x="245" y="175" width="25" height="17.8571" rx="4" fill="#828A90"/>
<rect x="245" y="194.286" width="25" height="5.71429" rx="2.85714" fill="#828A90"/>
<rect x="275" y="175" width="25" height="17.8571" rx="4" fill="#828A90"/>
<rect x="275" y="194.286" width="25" height="5.71429" rx="2.85714" fill="#828A90"/>
<rect x="305" y="175" width="25" height="17.8571" rx="4" fill="#828A90"/>
<rect x="305" y="194.286" width="25" height="5.71429" rx="2.85714" fill="#828A90"/>
<rect x="335" y="175" width="25" height="17.8571" rx="4" fill="#828A90"/>
<rect x="335" y="194.286" width="25" height="5.71429" rx="2.85714" fill="#828A90"/>
<rect x="365" y="175" width="25" height="17.8571" rx="4" fill="#828A90"/>
<rect x="365" y="194.286" width="25" height="5.71429" rx="2.85714" fill="#828A90"/>
<rect x="395" y="175" width="25" height="17.8571" rx="4" fill="#828A90"/>
<rect x="395" y="194.286" width="25" height="5.71429" rx="2.85714" fill="#828A90"/>
<rect x="460" y="175" width="25" height="17.8571" rx="4" fill="#828A90"/>
<rect x="460" y="194.286" width="25" height="5.71429" rx="2.85714" fill="#828A90"/>
<rect x="490" y="175" width="25" height="17.8571" rx="4" fill="#828A90"/>
<rect x="490" y="194.286" width="25" height="5.71429" rx="2.85714" fill="#828A90"/>
<rect x="520" y="175" width="25" height="17.8571" rx="4" fill="#828A90"/>
<rect x="520" y="194.286" width="25" height="5.71429" rx="2.85714" fill="#828A90"/>
</svg>
