<svg width="449" height="209" viewBox="0 0 449 209" fill="none" xmlns="http://www.w3.org/2000/svg">
<g filter="url(#filter0_f_29_275)">
<rect x="113" y="59" width="216" height="30" fill="#DAFFFB"/>
</g>
<path d="M140.696 88.24C139.704 88.24 138.616 88.192 137.432 88.096C136.248 88.032 135.048 87.92 133.832 87.76C133.8 87.024 133.768 85.872 133.736 84.304C133.704 82.704 133.672 80.848 133.64 78.736C133.608 76.592 133.576 74.32 133.544 71.92C133.512 69.52 133.48 67.104 133.448 64.672C133.448 62.24 133.432 59.92 133.4 57.712C133.4 55.504 133.4 53.568 133.4 51.904C135.128 51.712 136.776 51.568 138.344 51.472C139.944 51.344 141.416 51.28 142.76 51.28C147.56 51.28 151.288 52 153.944 53.44C156.6 54.88 157.928 56.928 157.928 59.584C157.928 62.976 155.624 65.616 151.016 67.504C153.736 68.24 155.912 69.472 157.544 71.2C159.176 72.928 159.992 74.88 159.992 77.056C159.992 79.2 159.16 81.12 157.496 82.816C155.864 84.512 153.592 85.84 150.68 86.8C147.8 87.76 144.472 88.24 140.696 88.24ZM140.936 54.784C140.936 59.424 140.968 63.696 141.032 67.6C142.824 67.312 144.392 66.848 145.736 66.208C147.112 65.536 148.184 64.736 148.952 63.808C149.752 62.88 150.152 61.904 150.152 60.88C150.152 59.76 149.72 58.752 148.856 57.856C148.024 56.928 146.904 56.192 145.496 55.648C144.12 55.072 142.6 54.784 140.936 54.784ZM141.8 84.832C143.528 84.832 145.128 84.56 146.6 84.016C148.072 83.472 149.256 82.752 150.152 81.856C151.048 80.928 151.496 79.888 151.496 78.736C151.496 77.488 151 76.272 150.008 75.088C149.048 73.872 147.768 72.832 146.168 71.968C144.6 71.104 142.92 70.56 141.128 70.336C141.256 76.032 141.48 80.864 141.8 84.832ZM175.929 88.24C173.401 88.24 171.113 87.648 169.065 86.464C167.017 85.28 165.385 83.68 164.169 81.664C162.985 79.648 162.393 77.408 162.393 74.944C162.393 72.992 162.761 71.168 163.497 69.472C164.233 67.776 165.257 66.288 166.569 65.008C167.913 63.696 169.449 62.688 171.177 61.984C172.905 61.248 174.745 60.88 176.697 60.88C179.225 60.88 181.513 61.472 183.561 62.656C185.609 63.84 187.225 65.44 188.409 67.456C189.625 69.44 190.233 71.68 190.233 74.176C190.233 76.128 189.865 77.952 189.129 79.648C188.393 81.344 187.353 82.848 186.009 84.16C184.697 85.44 183.177 86.448 181.449 87.184C179.753 87.888 177.913 88.24 175.929 88.24ZM177.321 84.352C179.017 84.352 180.345 83.632 181.305 82.192C182.265 80.72 182.745 78.688 182.745 76.096C182.745 73.92 182.425 71.984 181.785 70.288C181.145 68.592 180.265 67.248 179.145 66.256C178.025 65.264 176.745 64.768 175.305 64.768C173.609 64.768 172.281 65.504 171.321 66.976C170.361 68.416 169.881 70.432 169.881 73.024C169.881 75.168 170.201 77.104 170.841 78.832C171.481 80.528 172.361 81.872 173.481 82.864C174.633 83.856 175.913 84.352 177.321 84.352ZM206.632 88.24C204.104 88.24 201.816 87.648 199.768 86.464C197.72 85.28 196.088 83.68 194.872 81.664C193.688 79.648 193.096 77.408 193.096 74.944C193.096 72.992 193.464 71.168 194.2 69.472C194.936 67.776 195.96 66.288 197.272 65.008C198.616 63.696 200.152 62.688 201.88 61.984C203.608 61.248 205.448 60.88 207.4 60.88C209.928 60.88 212.216 61.472 214.264 62.656C216.312 63.84 217.928 65.44 219.112 67.456C220.328 69.44 220.936 71.68 220.936 74.176C220.936 76.128 220.568 77.952 219.832 79.648C219.096 81.344 218.056 82.848 216.712 84.16C215.4 85.44 213.88 86.448 212.152 87.184C210.456 87.888 208.616 88.24 206.632 88.24ZM208.024 84.352C209.72 84.352 211.048 83.632 212.008 82.192C212.968 80.72 213.448 78.688 213.448 76.096C213.448 73.92 213.128 71.984 212.488 70.288C211.848 68.592 210.968 67.248 209.848 66.256C208.728 65.264 207.448 64.768 206.008 64.768C204.312 64.768 202.984 65.504 202.024 66.976C201.064 68.416 200.584 70.432 200.584 73.024C200.584 75.168 200.904 77.104 201.544 78.832C202.184 80.528 203.064 81.872 204.184 82.864C205.336 83.856 206.616 84.352 208.024 84.352ZM224.999 88.096C224.967 87.36 224.935 86.144 224.903 84.448C224.903 82.752 224.887 80.768 224.855 78.496C224.855 76.224 224.839 73.824 224.807 71.296C224.807 68.736 224.791 66.224 224.759 63.76C224.759 61.264 224.759 58.96 224.759 56.848C224.759 54.736 224.759 53.008 224.759 51.664C226.167 51.664 227.623 51.68 229.127 51.712C230.631 51.744 231.927 51.792 233.015 51.856C233.015 53.264 233.015 55.04 233.015 57.184C233.015 59.296 232.999 61.6 232.967 64.096C232.967 66.56 232.967 69.024 232.967 71.488C234.695 70.08 236.391 68.64 238.055 67.168C239.751 65.696 241.303 64.304 242.711 62.992C244.151 61.648 245.335 60.464 246.263 59.44L250.535 62.32C249.511 63.28 248.327 64.32 246.983 65.44C245.671 66.56 244.263 67.696 242.759 68.848C243.399 70 244.119 71.36 244.919 72.928C245.751 74.464 246.599 76.096 247.463 77.824C248.327 79.52 249.159 81.216 249.959 82.912C250.759 84.576 251.479 86.112 252.119 87.52L242.903 88.48C241.943 85.728 240.935 83.04 239.879 80.416C238.855 77.792 237.831 75.424 236.807 73.312C235.527 74.24 234.231 75.136 232.919 76C232.887 78.752 232.855 81.216 232.823 83.392C232.823 85.536 232.807 87.04 232.775 87.904C231.943 87.968 230.919 88.016 229.703 88.048C228.487 88.08 226.919 88.096 224.999 88.096ZM255.618 86.8L254.994 79.024C255.954 78.928 257.154 78.848 258.594 78.784C260.034 78.72 261.474 78.688 262.914 78.688C262.914 79.776 262.898 80.88 262.866 82C262.866 83.12 262.85 84.096 262.818 84.928C262.818 85.728 262.802 86.256 262.77 86.512C261.682 86.512 260.482 86.544 259.17 86.608C257.858 86.64 256.674 86.704 255.618 86.8ZM267.745 58V51.52H275.905V58H267.745ZM267.937 88.096C267.905 87.04 267.873 85.616 267.841 83.824C267.809 82 267.777 79.92 267.745 77.584C267.745 75.216 267.729 72.688 267.697 70C267.697 67.312 267.697 64.56 267.697 61.744C269.137 61.744 270.641 61.76 272.209 61.792C273.809 61.824 275.057 61.872 275.953 61.936C275.953 64.272 275.937 66.72 275.905 69.28C275.905 71.84 275.889 74.336 275.857 76.768C275.857 79.168 275.841 81.344 275.809 83.296C275.777 85.248 275.745 86.784 275.713 87.904C274.241 87.968 272.833 88.016 271.489 88.048C270.145 88.08 268.961 88.096 267.937 88.096ZM281.508 88.096C281.476 87.072 281.444 85.664 281.412 83.872C281.38 82.048 281.348 79.952 281.316 77.584C281.316 75.184 281.3 72.608 281.268 69.856C281.268 67.072 281.268 64.208 281.268 61.264C281.972 61.264 282.836 61.28 283.86 61.312C284.884 61.312 285.908 61.328 286.932 61.36C287.988 61.392 288.852 61.424 289.524 61.456C289.524 62.256 289.524 63.072 289.524 63.904C292.244 61.888 295.012 60.88 297.828 60.88C300.42 60.88 302.516 61.792 304.116 63.616C305.716 65.44 306.868 68.352 307.572 72.352C308.308 76.352 308.676 81.6 308.676 88.096C307.94 88.096 307.06 88.08 306.036 88.048C305.012 88.048 304.004 88.032 303.012 88C302.02 87.968 301.156 87.936 300.42 87.904C300.42 82.24 300.26 77.712 299.94 74.32C299.62 70.928 299.092 68.48 298.356 66.976C297.62 65.472 296.628 64.72 295.38 64.72C294.356 64.72 293.316 65.152 292.26 66.016C291.204 66.88 290.292 68.016 289.524 69.424C289.492 72.144 289.46 74.72 289.428 77.152C289.428 79.584 289.412 81.744 289.38 83.632C289.348 85.488 289.316 86.912 289.284 87.904C288.292 87.936 287.076 87.968 285.636 88C284.228 88.064 282.852 88.096 281.508 88.096Z" fill="white"/>
<defs>
<filter id="filter0_f_29_275" x="-7" y="-61" width="456" height="270" filterUnits="userSpaceOnUse" color-interpolation-filters="sRGB">
<feFlood flood-opacity="0" result="BackgroundImageFix"/>
<feBlend mode="normal" in="SourceGraphic" in2="BackgroundImageFix" result="shape"/>
<feGaussianBlur stdDeviation="60" result="effect1_foregroundBlur_29_275"/>
</filter>
</defs>
</svg>
